<svg width="81" height="81" viewBox="0 0 81 81" fill="none" xmlns="http://www.w3.org/2000/svg">
<g clip-path="url(#clip0_2_1272)">
<path d="M58.4249 29.2664C61.6753 33.8071 63.5971 39.3648 63.5971 45.36C63.5971 60.6613 51.1055 73.1128 35.7548 73.1128C20.4042 73.1128 7.91257 60.6613 7.91257 45.36C7.91257 30.0586 20.4042 17.5953 35.7548 17.5953C41.7693 17.5953 47.333 19.5109 51.9003 22.7509L57.547 17.1223C51.5088 12.4751 43.9521 9.70813 35.7548 9.70813C16.0387 9.70813 0 25.7071 0 45.36C0 65.0128 16.0387 81 35.7548 81C55.471 81 71.5097 65.0128 71.5097 45.36C71.5097 37.189 68.7338 29.6566 64.0716 23.6378L58.4249 29.2664Z" fill="#172554"/>
<path d="M54.2612 33.4288L50.0854 37.5911C51.3548 39.897 52.0665 42.5457 52.0665 45.3601C52.0665 54.3233 44.7471 61.6074 35.7669 61.6074C26.7867 61.6074 19.4672 54.3114 19.4672 45.3601C19.4672 36.4087 26.7867 29.1128 35.7669 29.1128C38.5903 29.1128 41.2357 29.8341 43.5608 31.0875L47.7366 26.9252C44.2845 24.7021 40.1799 23.4014 35.7669 23.4014C23.5955 23.4014 13.7256 33.2396 13.7256 45.3719C13.7256 57.5041 23.5955 67.3424 35.7669 67.3424C47.9382 67.3424 57.8082 57.5041 57.8082 45.3719C57.8082 40.973 56.5033 36.8817 54.273 33.4406L54.2612 33.4288Z" fill="#172554"/>
<path d="M35.7552 54.7607C40.9638 54.7607 45.1863 50.5518 45.1863 45.36C45.1863 40.1681 40.9638 35.9592 35.7552 35.9592C30.5466 35.9592 26.3242 40.1681 26.3242 45.36C26.3242 50.5518 30.5466 54.7607 35.7552 54.7607Z" fill="#172554"/>
<path d="M80.9995 8.26555L74.7003 6.37358L73.1463 0L61.5918 10.9025L62.8493 16.0226L34.5918 44.1893L36.9288 46.5188L65.5421 17.9855L69.445 19.168L80.9995 8.26555Z" fill="#172554"/>
</g>
<defs>
<clipPath id="clip0_2_1272">
<rect width="81" height="81" fill="white"/>
</clipPath>
</defs>
</svg>
