<svg width="133" height="76" viewBox="0 0 133 76" fill="none" xmlns="http://www.w3.org/2000/svg">
<g clip-path="url(#clip0_2_1265)">
<path d="M76.8857 20.8278C87.6964 25.4462 95.2711 36.0563 95.2711 48.4139C95.2711 60.7714 87.6964 71.3815 76.8857 76C115.085 71.7738 133 48.4139 133 48.4139C133 48.4139 115.085 25.0539 76.8857 20.8278Z" fill="#172554"/>
<path d="M34.3482 48.4138C34.3482 36.0741 41.8868 25.4819 52.6613 20.8634C15.1855 25.1787 0 48.4138 0 48.4138C0 48.4138 15.1855 71.6489 52.6432 75.9643C41.8687 71.328 34.3302 60.7358 34.3302 48.4138H34.3482Z" fill="#172554"/>
<path d="M64.8098 28.5491C53.6918 28.5491 44.6709 37.4472 44.6709 48.4139C44.6709 59.3806 53.6918 68.2788 64.8098 68.2788C75.9278 68.2788 84.9487 59.3806 84.9487 48.4139C84.9487 37.4472 75.9278 28.5491 64.8098 28.5491ZM64.8098 56.1708C60.4711 56.1708 56.9459 52.6936 56.9459 48.4139C56.9459 44.1342 60.4711 40.657 64.8098 40.657C69.1485 40.657 72.6738 44.1342 72.6738 48.4139C72.6738 52.6936 69.1485 56.1708 64.8098 56.1708ZM75.5482 39.3731C73.9573 39.3731 72.6738 38.107 72.6738 36.5378C72.6738 34.9686 73.9573 33.7025 75.5482 33.7025C77.139 33.7025 78.4226 34.9686 78.4226 36.5378C78.4226 38.107 77.139 39.3731 75.5482 39.3731Z" fill="#172554"/>
<path d="M28.147 18.7414C30.6057 17.9746 33.1727 17.2613 35.8664 16.6194L23.6275 4.54712C20.952 5.18907 18.3668 5.88452 15.8721 6.61563L28.1651 18.7414H28.147Z" fill="#172554"/>
<path d="M63.7613 0C62.9298 0 62.1162 0 61.3027 0.017832V13.4988C62.3332 13.481 63.3636 13.4453 64.4122 13.4453C65.7138 13.4453 66.9973 13.481 68.2809 13.5167V0.053496C66.7804 0.017832 65.2799 0 63.7613 0Z" fill="#172554"/>
<path d="M105.684 4.85034L93.6807 16.6908C96.3743 17.3149 98.9414 18.0104 101.436 18.7771L113.458 6.91885C110.945 6.18774 108.36 5.49229 105.703 4.85034H105.684Z" fill="#172554"/>
</g>
<defs>
<clipPath id="clip0_2_1265">
<rect width="133" height="76" fill="white"/>
</clipPath>
</defs>
</svg>
