<svg width="69" height="81" viewBox="0 0 69 81" fill="none" xmlns="http://www.w3.org/2000/svg">
<g clip-path="url(#clip0_2_1255)">
<path d="M20.6108 47.6868L29.5496 80.8839L0 47.6868H20.6108Z" fill="#172554"/>
<path d="M20.7868 42.9459H0L13.6663 29.4091C14.112 28.9675 14.722 28.7119 15.3555 28.7119H28.9866L20.7751 42.9343L20.7868 42.9459Z" fill="#172554"/>
<path d="M44.0958 42.9459H23.9072L34.5118 28.7235L44.0958 42.9459Z" fill="#172554"/>
<path d="M43.4391 47.8029L34.5003 81L25.5615 47.8029H43.4274H43.4391Z" fill="#172554"/>
<path d="M48.2252 42.9459L40.0137 28.7235H53.6447C54.2782 28.7235 54.8882 28.9675 55.334 29.4207L68.9885 42.9575H48.2017L48.2252 42.9459Z" fill="#172554"/>
<path d="M48.389 47.8029H68.9998L39.4502 81L48.389 47.8029Z" fill="#172554"/>
<path d="M34.5005 13.5136C33.1749 13.5136 32.1074 12.4562 32.1074 11.1432V2.37039C32.1074 1.05738 33.1749 0 34.5005 0C35.8261 0 36.8935 1.05738 36.8935 2.37039V11.1432C36.8935 12.4562 35.8261 13.5136 34.5005 13.5136Z" fill="#172554"/>
<path d="M10.7096 18.4171L6.27544 10.8179C5.61852 9.67914 6.00563 8.23832 7.15524 7.576C8.30485 6.92531 9.75946 7.30875 10.4281 8.44747L14.8623 16.0467C15.5192 17.1854 15.1321 18.6262 13.9825 19.2885C12.8446 19.9392 11.3783 19.5558 10.7096 18.4171Z" fill="#172554"/>
<path d="M55.0283 19.2768C53.8787 18.6261 53.4916 17.1737 54.1485 16.0349L58.5827 8.43575C59.2396 7.29703 60.7059 6.91359 61.8556 7.56428C63.0052 8.21498 63.3923 9.66742 62.7354 10.8061L58.3012 18.4053C57.6325 19.5441 56.1779 19.9275 55.0283 19.2768Z" fill="#172554"/>
</g>
<defs>
<clipPath id="clip0_2_1255">
<rect width="69" height="81" fill="white"/>
</clipPath>
</defs>
</svg>
