<svg width="69" height="81" viewBox="0 0 69 81" fill="none" xmlns="http://www.w3.org/2000/svg">
<g clip-path="url(#clip0_50_63)">
<path d="M20.6108 47.6868L29.5496 80.8839L0 47.6868H20.6108Z" fill="#172554"/>
<path d="M20.7868 42.9459H0L13.6663 29.4091C14.112 28.9675 14.722 28.7119 15.3555 28.7119H28.9866L20.7751 42.9343L20.7868 42.9459Z" fill="#172554"/>
<path d="M44.0948 42.946H23.9062L34.5108 28.7236L44.0948 42.946Z" fill="#172554"/>
<path d="M43.4381 47.803L34.4993 81.0001L25.5605 47.803H43.4264H43.4381Z" fill="#172554"/>
<path d="M48.2252 42.946L40.0137 28.7236H53.6447C54.2782 28.7236 54.8882 28.9676 55.334 29.4208L68.9885 42.9576H48.2017L48.2252 42.946Z" fill="#172554"/>
<path d="M48.39 47.803H69.0008L39.4512 81.0001L48.39 47.803Z" fill="#172554"/>
<path d="M34.5005 13.5136C33.1749 13.5136 32.1074 12.4562 32.1074 11.1432V2.37039C32.1074 1.05738 33.1749 0 34.5005 0C35.8261 0 36.8935 1.05738 36.8935 2.37039V11.1432C36.8935 12.4562 35.8261 13.5136 34.5005 13.5136Z" fill="#172554"/>
<path d="M10.7106 18.4169L6.27642 10.8177C5.6195 9.67902 6.00661 8.2382 7.15622 7.57588C8.30583 6.92518 9.76043 7.30863 10.4291 8.44735L14.8633 16.0465C15.5202 17.1853 15.1331 18.6261 13.9835 19.2884C12.8456 19.9391 11.3793 19.5557 10.7106 18.4169Z" fill="#172554"/>
<path d="M55.0293 19.2769C53.8797 18.6262 53.4925 17.1738 54.1495 16.0351L58.5837 8.43587C59.2406 7.29716 60.7069 6.91371 61.8565 7.56441C63.0061 8.2151 63.3933 9.66755 62.7363 10.8063L58.3021 18.4055C57.6335 19.5442 56.1789 19.9276 55.0293 19.2769Z" fill="#172554"/>
</g>
<defs>
<clipPath id="clip0_50_63">
<rect width="69" height="81" fill="white"/>
</clipPath>
</defs>
</svg>
